<svg width="2133" height="592" viewBox="0 0 2133 592" fill="none" xmlns="http://www.w3.org/2000/svg">
<path d="M320.13 76C349.05 70.69 376.03 63.27 404.59 55.85C413.76 53.5245 422.778 50.6323 431.59 47.19C545.83 12.57 679.13 0.199984 791.8 48.43L815.6 59.57C880.66 92.96 925.1 132.57 971.12 180.77C1002.85 214.16 1029.83 243.84 1063.12 277.23C1102.79 315.57 1139.29 351.44 1180.55 388.54C1207.55 412.04 1232.92 433.06 1261.48 455.33L1304.37 485C1305.95 486.24 1309.13 486.24 1310.71 487.47C1348.8 514.68 1391.65 533.23 1437.71 549.31C1456.71 556.73 1475.79 560.44 1494.83 565.39C1513.87 570.34 1532.92 571.57 1551.96 574.04C1572.59 575.28 1593.22 577.75 1613.67 576.63" stroke="#C7EAFF" stroke-width="2" stroke-miterlimit="10"/>
<path d="M6.19995 8.82001C26.31 48.2 63.42 81.82 115.63 96.23C181.5 114.41 253.5 105.15 318.84 90.46C351.05 83.22 382.58 74.26 413.74 64.64C444.5 55.14 474.69 45 506.55 37.77C569.33 23.55 636.26 17.84 700.84 27.77C762.78 37.35 817.94 62.48 864.84 94.93C914.9 129.57 954.17 172 992.95 214.19C1032.02 256.69 1071.32 299.05 1113.88 339.49C1151.88 375.62 1192.65 410.07 1237.57 441.09C1285.47 474.16 1337.48 503.91 1394.93 526.09C1456.41 549.823 1521.08 565.443 1588.93 572.95C1605.32 574.79 1621.78 576.23 1638.31 577.27" stroke="#C7EAFF" stroke-width="2" stroke-miterlimit="10"/>
<path d="M3.05005 5.83002C12.63 42.25 36.43 75.64 74.5 99.14C78.4489 100.721 82.1792 102.802 85.6 105.33C110.99 118.93 139.6 123.88 168.12 125.11C225.172 126.231 282.015 117.874 336.33 100.38C339.51 99.14 341.1 100.38 344.27 99.14C349.03 97.9 352.2 95.43 356.96 94.14C360.14 92.91 361.73 94.14 364.9 92.91C383.9 86.72 401.4 79.3 420.44 73.12C433.14 69.41 445.83 64.46 458.53 59.52C461.7 58.28 463.29 59.52 466.46 58.28C571.22 23.7 693.41 12.57 796.56 60.8L801.32 64.51C829.88 75.64 848.92 92.96 874.32 107.8C882.25 112.8 887.01 118.93 894.94 123.88C923.51 147.37 944.14 172.11 969.53 198.08C1021.9 256.21 1064.74 311.86 1125.05 363.81C1205.98 431.81 1296.43 489.96 1407.51 523.35L1426.51 530.77C1453.51 539.43 1482.05 545.61 1510.61 553.03C1520.14 555.5 1531.24 555.5 1540.76 558.03C1542.35 558.03 1545.53 560.5 1547.11 560.5C1586.78 567.92 1623.28 572.87 1662.91 578.05" stroke="#C7EAFF" stroke-width="2" stroke-miterlimit="10"/>
<path d="M8.93005 11.68C15.8001 62 49.1301 118.93 117.36 136.24C149.1 143.66 180.84 146.14 214.16 142.43C290.33 132.53 356.98 110.27 425.22 81.83C477.59 60.83 528.37 44.72 587.09 37.3C623.58 33.59 656.91 32.36 691.82 36.07C714.04 38.54 734.67 43.49 755.3 49.67C796.56 62 831.5 81.83 863.21 105.33C872.73 111.51 879.08 118.93 888.6 125.11C907.6 141.19 921.92 157.27 939.38 174.58C953.66 191.9 967.94 205.5 982.22 222.82C994.92 238.89 1009.22 252.5 1020.31 268.58C1031.42 283.42 1044.11 293.31 1055.22 308.15C1059.98 311.86 1064.74 316.81 1069.5 320.52C1110.76 365.04 1153.61 399.67 1205.98 434.3C1310.71 502.3 1432.91 529.53 1562.98 554.3C1564.57 554.3 1567.74 556.77 1569.33 556.77C1610.59 564.19 1648.67 570.37 1687.57 578.77" stroke="#C7EAFF" stroke-width="2" stroke-miterlimit="10"/>
<path d="M16.5 19.76C18.93 36.07 20.5 50.91 25.28 66.99C33.22 89.25 45.91 109.04 64.95 127.59C79.28 142.43 98.32 151.09 120.5 156C160.17 165.9 201.43 163.42 241.1 156C325.21 138.69 395.03 102.82 471.2 75.61C548.96 47.17 629.89 29.85 717.2 44.69C726.72 45.93 734.66 49.69 744.2 50.88C774.35 58.3 799.74 71.88 826.72 86.74C848.93 101.59 867.98 115.19 887.02 132.5C934.63 174.55 969.54 216.6 1007.63 264.84L1021.91 279.68C1067.91 339.04 1117.12 389.75 1188.53 433.03C1232.97 459.03 1277.4 478.79 1326.59 492.4C1421.81 520.84 1517.02 535.69 1615.41 556.71C1648.73 564.13 1680.47 571.55 1712.3 579.34" stroke="#C7EAFF" stroke-width="2" stroke-miterlimit="10"/>
<path d="M25.94 27.55C26.6 56.15 32.94 83.3 43.35 110.65C52.49 134.79 71.77 155.17 99.88 167.87C129.37 181.2 164.69 183.11 197.97 180.14C231.64 177.14 263.97 168.41 294.9 157.93C325.011 147.699 354.565 135.896 383.44 122.57C411.99 109.43 440.74 96.57 470.44 84.97C500.14 73.37 530.86 63.14 562.76 55.82C593.98 48.65 626.4 44.38 659.01 44.65C692.612 44.9176 725.984 50.2267 758.01 60.4C774.5 65.66 789.13 73 804.05 80.59C819.28 88.33 834.43 96.33 847.2 106.49C853.85 111.79 860.35 117.2 866.89 122.58C872.63 127.31 881.49 132.37 885.18 138.16C888.7 143.68 894.81 148.16 899.92 152.9C905.453 158.06 910.853 163.307 916.12 168.64C926.637 179.306 936.597 190.508 945.96 202.2C950.5 207.89 956.6 212.4 961.14 218.08C966.14 224.28 970.99 230.52 975.96 236.72C995.07 260.57 1014.65 284.18 1034.23 307.79C1053.98 331.61 1074.67 355.42 1098.74 376.79C1121.49 396.95 1146.36 417.42 1174.15 433.42C1202.86 449.94 1232.92 464.53 1265.63 475.77C1298.7 487.13 1333.99 495.77 1368.78 503.32C1404.64 511.06 1441.06 516.98 1477.36 523.26C1512.86 529.39 1548.36 535.62 1583.59 542.58C1618.59 549.5 1653.38 557.14 1687.59 566.1C1704.19 570.453 1720.64 575.12 1736.93 580.1" stroke="#C7EAFF" stroke-width="2" stroke-miterlimit="10"/>
<path d="M35.72 36C31.72 53.34 34.84 71.89 38.02 89.21C41.19 121.4 52.3 153.56 82.5 177.06C99.96 190.66 122.17 196.85 145.98 199.32C189.228 201.615 232.48 194.875 272.98 179.53C276.15 178.29 277.74 179.53 280.91 178.29C301.54 170.87 322.17 163.45 342.8 154.8C422.15 118.93 490.38 76.88 579.25 58.33C614.16 50.91 650.66 49.67 685.57 50.91C736.25 54.62 785.5 70.7 823.5 97.9C825.09 99.14 828.26 99.14 829.85 100.38C853.66 116.46 872.7 132.53 893.33 152.32C928.24 189.42 959.98 222.82 986.96 262.39C991.72 267.34 994.89 272.29 999.65 277.23C1001.24 278.47 1001.24 280.94 1002.82 283.42C1006 287.13 1009.17 289.6 1012.35 293.31C1052.02 347.73 1094.86 394.73 1156.75 434.31C1201.19 461.52 1248.75 480.07 1304.34 489.97C1305.92 489.97 1309.1 492.44 1310.68 492.44C1339.25 497.39 1364.68 503.57 1393.2 506.04C1413.83 507.28 1432.88 512.23 1453.51 514.7C1561.41 528.3 1662.98 546.86 1761.59 580.7" stroke="#C7EAFF" stroke-width="2" stroke-miterlimit="10"/>
<path d="M48.39 44.27C42.78 74.41 41.19 104.09 50.71 133.77V143.66C60.23 170.87 74.52 196.85 107.84 210.45C111.01 211.69 115.78 212.92 118.95 214.16C153.86 224.05 188.77 219.16 223.68 211.69L237.97 208C242.73 206.76 245.9 204.29 250.66 203.05C253.84 201.81 255.42 203.05 258.6 201.81C307.79 185.73 350.6 164.71 396.66 141.21C476 99.21 550.59 60.82 644.21 54.64C706.1 50.93 766.41 65.77 815.6 96.69C836.23 110.29 853.69 122.69 871.14 137.5C894.94 158.5 913.99 180.79 934.62 204.29C975.88 253.76 1006.03 300.75 1047.29 350.22C1056.81 360.12 1063.16 367.54 1072.68 377.43C1091.68 395.98 1109.18 412.06 1129.81 428.14C1155.2 445.45 1182.17 459.06 1212.33 470.19C1313.89 504.82 1421.8 503.58 1532.88 518.42C1619.4 530.053 1704.38 551.181 1786.28 581.42" stroke="#C7EAFF" stroke-width="2" stroke-miterlimit="10"/>
<path d="M59.5 52.14C50.72 86.77 52.31 122.64 57.07 158.51C58.6015 169.249 61.8141 179.68 66.59 189.42C77.7 209.21 93.59 229 122.13 233.95C196.72 250.03 264.95 220.34 326.84 190.66C423.64 141.19 501.4 81.83 617.25 63.28C677.5 54.62 733.08 59.57 785.5 85.54C796.61 91.72 806.13 96.67 818.82 104.09C839.45 115.22 853.74 128.82 871.19 143.66C888.6 161 904.5 175.82 920.34 194.37C936.2 215.37 952.07 235.18 967.94 256.21C1015.55 326.7 1061.57 396 1142.5 446.67C1210.74 489.96 1296.43 499.85 1378.95 501.09C1383.71 501.09 1388.47 503.56 1393.23 503.56C1418.62 506.03 1444.01 506.03 1469.4 508.51H1485.27C1534.47 512.22 1580.49 517.16 1629.68 527.06C1631.27 527.06 1631.27 529.53 1632.86 529.53C1653.48 533.24 1672.53 535.72 1691.57 541.9C1712.2 548.08 1734.42 551.79 1753.46 561.69C1774.09 565.4 1793.13 574.05 1810.94 582.11" stroke="#C7EAFF" stroke-width="2" stroke-miterlimit="10"/>
<path d="M73.03 59.82C69.75 71.93 68.17 83.06 65.03 95.43C60.27 125.11 57.1 153.56 65.03 183.24V189.42C71.38 212.92 80.9 236.42 107.88 247.55C147.55 266.1 195.16 257.45 234.88 242.55L249.17 238.84C280.9 227.71 307.88 214.11 336.44 199.27C445.85 137.48 545.83 60.8 682.3 65.75C736.25 67 785.5 85.54 825.12 114C837.82 123.9 850.51 132.55 863.21 143.68C872.73 153.58 882.21 162.24 891.77 172.13C929.86 215.42 958.42 256.23 990.16 300.75C1007.62 323 1023.5 344 1040.94 366.28C1044.11 371.28 1048.87 374.94 1053.64 378.65C1056.81 381.12 1056.81 386.07 1059.98 388.54C1063.15 391.01 1066.33 393.49 1067.92 397.2L1072.68 400.91C1074.27 402.15 1074.27 404.62 1075.85 405.86L1080.61 409.57C1082.2 410.8 1082.2 413.28 1083.79 414.51C1101.24 429.35 1117.11 442.96 1136.15 455.33C1161.54 470.17 1186.94 480.06 1217.09 487.48C1248.82 494.9 1280.56 497.38 1313.89 499.85C1409.1 503.56 1499.56 501.09 1596.36 513.45C1679.02 524.96 1759.6 548.313 1835.61 582.79" stroke="#C7EAFF" stroke-width="2" stroke-miterlimit="10"/>
<path d="M87.01 66.68C72.93 112.75 61.82 159.74 69.75 208C72.93 222.84 77.69 236.44 87.21 248.81C96.73 261.18 109.43 268.6 125.3 273.54C166.56 283.44 207.82 271.07 244.3 256.23C304.61 232.73 356.97 201.81 409.3 167.23C417.24 162.29 425.17 158.58 433.11 153.63C437.87 149.92 444.21 146.21 448.97 142.5C455.32 138.79 461.67 135.08 468.02 132.6C471.47 129.767 475.191 127.282 479.13 125.18C536.25 99.18 591.8 74.48 656.86 69.53C704.47 65.82 748.86 75.71 790.16 97.97L794.92 101.69C815.55 110.34 831.42 122.69 847.29 135.08C848.87 136.31 848.87 138.79 850.46 140.02C896.46 179.6 928.22 224.12 963.13 269.88C971.07 282.25 979 293.38 988.52 305.75C1002.8 326.75 1015.52 346.56 1032.96 367.59C1036.13 371.3 1036.13 373.77 1039.3 377.48C1042.47 381.19 1045.65 383.66 1048.82 387.38C1075.82 419.53 1101.19 447.98 1142.45 469L1147.21 472.71C1258.3 520.94 1382.07 496.21 1501.09 501.16C1536.68 502.236 1572.2 505.1 1607.5 509.74C1629.72 512.22 1651.94 514.74 1674.15 519.64C1675.74 519.64 1677.33 522.11 1678.92 522.11C1712.03 527.875 1744.46 536.992 1775.72 549.32L1790 553.03C1813.8 561.69 1839.19 570.34 1860.31 583.48" stroke="#C7EAFF" stroke-width="2" stroke-miterlimit="10"/>
<path d="M102.08 72.66C82.5 126.35 71.34 182 77.69 237.66C79.28 252.5 87.21 266.1 99.91 278.47C115.78 293.31 137.99 297.02 161.8 295.79C218.92 290.79 263.36 267.34 310.96 241.37C418.87 179.53 499.81 97.9 636.28 78.12C642.63 76.88 650.56 75.64 656.91 74.41C685.152 73.1166 713.44 75.6121 741.02 81.83C758.117 86.5307 774.621 93.1705 790.21 101.62C840.99 130.06 872.73 164.69 906.05 204.27C915.57 216.63 923.51 227.76 933.05 238.89C985.42 310.63 1023.5 381.12 1090.15 445.43C1102.85 456.56 1115.54 465.22 1129.83 475.11C1141.08 481.281 1152.74 486.655 1164.74 491.19C1242.5 518.4 1328.19 506.03 1410.74 501.09C1466.28 498.61 1521.82 497.38 1577.36 501.09C1644.01 504.8 1709.08 514.69 1769.36 536.95C1772.53 538.19 1774.12 536.95 1777.29 538.19C1809.03 550.56 1839.18 561.69 1870.92 577.76C1875.68 580.24 1880.44 581.48 1884.92 584.16" stroke="#C7EAFF" stroke-width="2" stroke-miterlimit="10"/>
<path d="M118.12 78.29C98.32 130.06 80.86 183.29 82.45 237.66C82.45 250.03 82.45 263.66 87.21 276C91.8662 285.776 98.3104 294.594 106.21 302C109.39 303.24 110.97 305.71 114.15 308.18C150.65 325.5 191.91 311.89 226.82 297.05C268.08 279.74 307.75 261.19 342.66 235.21C344.25 233.98 347.42 233.98 349.01 232.74C363.29 221.61 379.16 212.95 391.86 200.59C395.03 198.11 399.79 196.88 402.96 194.4C417.25 183.27 433.12 173.4 448.96 163.48C453.73 161.01 455.31 157.3 460.07 154.83C482.29 142.46 501.33 131.33 523.55 121.43C526.72 120.2 529.9 116.49 533.07 115.25C560.07 104.12 587.07 94.25 615.59 86.8C650.5 78.15 687 75.67 723.5 83.09L737.78 86.8C747.3 90.51 756.78 91.8 766.35 95.46C856.8 137.46 904.41 205.53 952.01 274.79C975.82 311.89 999.62 347.79 1025.01 384.86C1037.71 403.41 1052.01 419.49 1067.86 438.04L1077.38 445.46C1078.97 446.7 1078.97 449.17 1080.55 450.41C1099.6 466.49 1118.64 481.33 1142.44 492.46C1171.01 503.59 1199.57 511.01 1229.72 512.25C1263.05 513.48 1297.96 512.25 1331.28 509.77C1421.74 502.35 1510.6 491.22 1602.64 496.17C1639.45 498.675 1676.05 503.629 1712.2 511C1736 515.95 1758.2 523.37 1782.02 529.55C1804.24 535.74 1823.28 545.63 1845.5 554.29C1867.72 562.95 1889.93 571.6 1909.6 584.86" stroke="#C7EAFF" stroke-width="2" stroke-miterlimit="10"/>
<path d="M135.81 81.62C122.12 114 109.43 146.14 101.5 180.77C99.92 183.24 96.74 185.71 96.74 189.42C90.39 227.76 80.87 264.87 95.16 303.21C99.92 314.337 107.853 323.003 118.96 329.21C155.46 344.05 195.13 324.26 230.04 314.37C276.04 292.11 317.32 266.13 358.58 237.69C417.3 195.69 468.08 153.59 536.31 121.43L560.12 110.3C602.96 92.99 648.98 81.86 696.59 84.3C732.06 86.6373 766.407 97.6832 796.59 116.46C864.82 157.27 902.91 214.16 942.59 272.29C966.4 308.15 988.59 344.02 1012.42 379.88C1031.25 405.625 1051.37 430.394 1072.72 454.09L1082.24 461.51C1107.63 491.19 1144.13 508.51 1186.98 514.69C1193.32 515.93 1201.26 517.16 1207.6 518.4C1263.15 523.4 1313.93 515.93 1369.47 507.27C1486.9 489.96 1597.98 483.77 1715.41 503.56C1724.94 504.8 1732.87 508.51 1742.41 509.74C1807.47 525.82 1869.41 545.61 1923.32 580.24C1926.49 582.71 1931.25 583.95 1934.32 585.53" stroke="#C7EAFF" stroke-width="2" stroke-miterlimit="10"/>
<path d="M154.5 84.48C136.42 126.35 117.38 167.16 104.69 212.92C101.51 225.29 99.93 236.42 96.75 248.79C91.99 280.94 85.64 318.05 114.21 344.02C136.42 361.33 169.75 352.68 195.14 344.02C198.31 342.78 199.9 344.02 203.07 342.78C225.29 332.89 245.92 322.99 268.14 310.63C296.7 293.31 322.09 277.23 347.48 258.68C414.13 209.21 471.26 158.51 550.61 121.4C587.11 105.33 623.61 92.96 664.86 89.25C706.11 85.54 744.21 94.19 779.12 111.51C829.9 137.51 860.05 173.35 893.38 212.92C896.55 216.63 896.55 219.11 899.73 222.82C904.49 227.76 907.66 232.71 912.42 237.66C948.92 289.6 979.07 340.31 1013.98 393.49C1040.98 431.83 1066.35 468.93 1110.78 498.61C1133 512.22 1156.78 520.87 1185.37 524.61C1220.28 528.32 1252.02 527.09 1285.37 523.38C1402.8 507.3 1513.89 482.56 1631.37 487.51C1690.08 491.22 1748.8 499.88 1804.37 517.19C1859.91 535.75 1912.28 556.77 1959.06 586.24" stroke="#C7EAFF" stroke-width="2" stroke-miterlimit="10"/>
<path d="M174.09 87.08C171.32 94.19 166.56 101.62 161.8 110.27C131.64 175.82 104.67 241.37 98.32 310.63C101.49 329.18 99.91 352.68 120.54 366.28C129.931 372.371 141.152 374.995 152.27 373.7C204.64 367.52 244.27 341.55 283.99 316.81C296.68 306.92 310.99 299.5 323.66 289.6C330.01 283.42 337.94 279.71 345.88 273.52C348.938 269.896 352.719 266.95 356.98 264.87C358.57 263.63 360.16 261.16 361.75 259.92C363.34 258.68 366.51 257.45 368.09 256.21C369.67 254.97 371.27 252.5 372.85 251.26C374.43 250.02 377.61 248.79 379.2 247.55C380.79 246.31 382.38 243.84 383.96 242.55C385.54 241.26 388.72 240.08 390.31 238.84C423.63 209.16 456.96 183.19 496.63 159.69C512.5 149.8 526.78 141.14 542.63 132.48C547.39 130.01 550.57 130.01 555.33 127.54L560.09 123.83C595 108.99 628.33 97.83 668 94.14C712.43 90.43 753.69 100.33 788.6 121.35C845.73 157.22 882.23 201.74 915.6 251.21C956.86 311.81 988.6 372.41 1034.6 433.01C1056.82 462.7 1077.45 492.38 1115.53 513.4C1183.77 550.51 1261.53 531.96 1336.11 519.59C1417.05 504.75 1491.63 488.67 1572.56 483.72C1616.49 481.247 1660.56 482.488 1704.28 487.43C1726.49 489.91 1747.12 494.85 1769.34 498.56C1797.9 504.75 1823.34 513.4 1850.27 522.06C1897.88 539.38 1942.27 561.64 1983.6 586.85" stroke="#C7EAFF" stroke-width="2" stroke-miterlimit="10"/>
<path d="M195.14 88.32C160.21 152.32 128.47 216.63 111.01 288.32C104.7 312.114 103.083 336.908 106.25 361.32C107.84 373.69 117.36 386.06 131.64 391.01C149.1 395.95 168.14 391.01 184.01 386.06C220.51 372.45 249.08 353.9 280.81 334.11C282.4 332.88 283.99 330.4 285.57 329.17C290.33 326.69 293.51 324.22 298.27 321.75C352.27 282.17 398.27 241.36 449.02 200.55C487.11 170.86 525.2 144.89 572.8 125.1C599.8 113.97 625.17 104.1 655.32 100.37C672.78 99.13 690.23 97.89 707.69 99.13C766.41 105.32 809.25 136.23 845.75 172.13C915.57 245.13 952.07 323.01 1002.85 402.13C1031.42 444.18 1058.4 487.46 1106 519.62C1126.63 533.22 1150.44 538.17 1175.83 541.88C1205.98 545.59 1232.96 541.88 1263.11 536.93C1417.04 510.93 1558.27 463.93 1716.96 482.51C1826.46 496.12 1924.85 533.22 2008.26 587.56" stroke="#C7EAFF" stroke-width="2" stroke-miterlimit="10"/>
<path d="M217.38 87.63C185.6 138.72 163.38 190.63 137.99 243.84C136.4 247.55 136.4 252.5 134.82 256.21C120.54 290.84 111.01 325.47 107.82 361.33C107.82 378.65 109.41 398.44 130.04 408.33C141.15 414.51 155.43 413.28 168.12 409.57C196.69 399.67 223.66 388.57 245.88 371.23C247.47 369.99 250.64 369.99 252.23 368.75C299.84 337.83 339.51 304.44 382.36 268.58C390.29 261.16 398.22 253.74 407.75 246.32C410.92 242.6 414.09 240.13 417.27 236.42C479.16 184.48 542.63 133.77 629.91 110.27C685.45 95.43 744.17 102.85 790.19 132.53C863.19 179.53 898.1 243.84 939.36 306.92C982.2 376.17 1013.94 444.2 1074.25 507.27C1080.27 512.986 1086.62 518.355 1093.25 523.35C1099.62 528.263 1106.55 532.414 1113.88 535.72C1171.01 565.4 1236.07 549.32 1296.37 538.19L1310.65 534.48C1312.24 534.48 1315.41 532.01 1317 532.01C1321.76 530.77 1328.11 530.77 1332.87 529.53C1382.06 515.93 1428.08 504.8 1478.87 494.9C1480.45 494.9 1483.63 492.43 1485.21 492.43C1582.01 473.88 1677.21 466.43 1775.62 483.77C1874 502.32 1958.11 539.43 2032.86 588.26" stroke="#C7EAFF" stroke-width="2" stroke-miterlimit="10"/>
<path d="M241.93 85.81C195.12 159.74 157.03 233.95 126.93 314.34C117.41 342.78 109.48 371.23 112.65 400.91C114.24 413.28 122.17 428.12 139.65 430.59C163.45 434.3 182.5 425.64 201.54 415.75C253.91 388.54 291.99 357.62 333.25 322.99C388.72 273.52 439.5 226.53 499.81 180.77C552.17 142.43 614.06 107.77 687.06 107.77C696.58 107.77 707.69 109.01 717.21 110.24C729.91 111.48 741.02 116.43 752.12 118.9C777.51 127.56 798.12 141.16 817.19 156C848.92 183.21 871.14 211.66 891.77 243.81C921.92 290.81 953.66 334.09 975.88 382.33C977.46 386.04 982.22 388.51 983.81 392.22C1002.81 429.32 1025.07 462.72 1053.64 498.58C1079.03 529.5 1112.35 555.47 1159.96 560.42C1202.8 565.37 1244.06 556.71 1285.32 546.82C1436.08 506 1585.25 455.3 1748.7 472.61C1793.97 477.604 1838.63 487.135 1882 501.06C1947.06 523.32 2004.19 554.24 2057.58 588.92" stroke="#C7EAFF" stroke-width="2" stroke-miterlimit="10"/>
<path d="M267.78 83.24C233.21 137.48 199.88 191.9 172.9 248.79C145.9 304.44 115.78 361.33 117.36 420.7C118.95 429.35 120.54 440.49 130.06 446.7C149.06 457.83 171.32 449.17 188.77 440.52C204.64 431.86 218.92 424.44 233.21 414.52C249.08 404.63 261.77 393.52 276.05 383.6C337.94 335.37 388.72 284.66 445.85 231.48C449.02 229.01 453.79 226.54 456.96 224.06C498.22 186.96 542.65 157.28 596.61 132.54C617.992 123.679 640.373 117.453 663.26 114C689.847 110.447 716.885 112.557 742.6 120.19C774.34 130.08 799.73 148.63 823.53 168.42C845.75 189.42 863.21 210.42 880.66 233.97C906.05 271.07 928.27 306.97 948.9 344.04C960.01 365.04 972.7 386.09 985.4 407.11C986.99 409.59 985.4 410.82 986.99 413.3C998.09 433.08 1010.79 450.4 1023.48 470.19C1037.77 491.19 1052.05 511 1071.09 529.55C1085.37 541.92 1098.09 553.05 1117.09 560.47C1136.09 566.65 1158.35 571.6 1178.98 570.36C1199.21 569.11 1219.35 566.633 1239.28 562.94C1261.5 559.23 1280.54 553.05 1301.17 548.1C1355.17 532.03 1407.49 514.71 1461.45 499.87C1480.45 494.87 1497.95 491.21 1516.99 486.27C1529.69 483.79 1540.79 482.55 1553.49 480.08C1555.08 480.08 1558.25 477.61 1559.84 477.61C1612.21 470.19 1661.4 462.77 1713.77 465.24C1751.85 467.71 1788.35 470.19 1826.44 477.61C1918.33 497.479 2005.31 535.562 2082.23 589.61" stroke="#C7EAFF" stroke-width="2" stroke-miterlimit="10"/>
<path d="M294.5 80.46C285.5 88.01 283.95 97.9 276.01 106.56C269.66 115.22 266.49 125.11 260.14 133.77C234.75 169.64 215.71 206.77 195.08 243.84C190.32 252.5 183.97 262.39 179.21 271.05C179.21 273.52 179.21 274.76 177.62 277.23C154.656 317.471 137.557 360.785 126.84 405.86C122.08 421.93 118.91 436.78 123.67 452.86C124.367 455.978 125.718 458.914 127.633 461.472C129.548 464.03 131.984 466.152 134.78 467.7C145.89 473.89 156.99 470.18 168.1 467.7C191.91 460.28 210.95 447.92 229.99 434.31C301.4 382.37 356.99 326.71 418.83 266.11C482.31 206.75 548.96 149.86 642.59 122.65C667.5 116.492 693.369 115.232 718.76 118.94C744.15 122.65 766.37 132.54 785.41 144.94C858.41 193.17 893.32 259.94 931.41 325.51C971.09 392.29 999.65 459.08 1053.61 523.39C1059.95 529.57 1064.71 535.76 1071.06 541.94C1079 548.12 1083.76 555.54 1093.28 560.49C1098.04 561.73 1101.21 564.2 1104.39 566.67C1167.86 596.36 1240.86 571.67 1302.75 551.83C1305.92 550.6 1307.51 551.83 1310.68 550.6C1332.9 543.18 1353.53 536.99 1375.75 529.6C1399.55 520.94 1421.75 513.52 1447.16 507.34C1453.51 504.87 1461.44 502.39 1467.79 499.92C1537.61 480.13 1607.43 465.29 1682.02 461.58C1758.75 457.896 1835.53 467.511 1908.98 490C1941.44 500.896 1973.23 513.694 2004.19 528.33C2011.86 532.936 2019.81 537.067 2027.99 540.7C2055.11 555.92 2081.45 572.494 2106.91 590.36" stroke="#C7EAFF" stroke-width="2" stroke-miterlimit="10"/>
<path d="M324.5 74.16C264.91 157.27 210.96 241.37 169.7 330.41C157 356.41 144.31 379.88 137.96 407.09C137.96 408.33 134.79 410.8 134.79 412.09C128.44 436.83 115.79 462.8 134.79 486.3C144.31 496.19 160.18 490.01 171.29 486.3C185.57 480.11 196.68 473.93 207.79 465.3C209.37 464.06 212.55 464.06 214.13 462.83C279.23 417 330.01 367.52 383.96 313.1C434.74 261.16 479.18 214.16 544.24 173.35C552.17 169.64 558.52 164.69 566.46 159.74C571.22 158.51 574.39 156.03 577.56 153.56L601.37 142.43C631.52 128.82 663.26 121.43 696.58 121.43C720.39 122.67 744.19 127.62 766.41 138.75C769.58 141.22 772.75 142.46 777.51 144.93C844.16 185.74 875.9 241.4 910.81 298.29C952.07 367.55 982.22 435.57 1028.24 503.59L1047.24 529.59C1058.35 540.72 1066.24 553.09 1078.98 561.75C1083.74 564.22 1086.91 569.17 1091.67 571.64C1109.13 580.3 1126.58 587.72 1147.21 588.96C1171.02 590.19 1194.82 587.72 1218.62 582.77C1282.1 567.93 1339.23 546.91 1397.94 524.64C1401.12 523.41 1402.7 524.64 1405.88 523.41C1445.55 507.33 1486.81 496.2 1529.66 485.07C1575.66 472.7 1620.11 464.07 1667.72 459.07C1759.72 451.65 1851.8 459.07 1935.9 489.99C1939.08 491.22 1940.66 489.99 1943.84 491.22C2013.66 517.22 2075.55 550.59 2131.53 591.03" stroke="#C7EAFF" stroke-width="2" stroke-miterlimit="10"/>
<path d="M41.19 38C68.9 60 104.56 74.92 143.5 82.06C181.79 89.06 221.81 88.87 260.68 84.99C282.44 82.82 303.99 79.49 325.28 75.44" stroke="#C7EAFF" stroke-width="2" stroke-miterlimit="10"/>
<path d="M42.84 38.85C27.65 27.29 12.17 15.49 1.83997 1" stroke="#C7EAFF" stroke-width="2" stroke-miterlimit="10" stroke-linecap="round"/>
<path d="M15.86 20.48C14.9404 19.5093 14.2141 18.3724 13.72 17.13" stroke="#C7EAFF" stroke-width="2" stroke-miterlimit="10" stroke-linecap="round"/>
<path d="M9.73002 15.79C8.25971 14.3273 7.12367 12.5636 6.40002 10.62" stroke="#C7EAFF" stroke-width="2" stroke-miterlimit="10" stroke-linecap="round"/>
<path d="M6.8 15.6C4.78 10.8333 3.01333 6.00666 1.5 1.12" stroke="#C7EAFF" stroke-width="2" stroke-miterlimit="10" stroke-linecap="round"/>
</svg>
